<svg xmlns="http://www.w3.org/2000/svg" width="115.993" height="115.992" viewBox="0 0 115.993 115.992"><defs><style>.a{fill:none;}.b{fill:#006cff;}.c{fill:#d3d3d3;}.d{fill:#fd0d1b;}.e{fill:#27ad3a;}</style></defs><g transform="translate(456.809 -256.642)"><path class="a" d="M-372.278,259.209v50.02h50.02A56.389,56.389,0,0,0-372.278,259.209Z" transform="translate(-20.503 -0.623)"/><path class="b" d="M-372.278,391.193v1.944a58.325,58.325,0,0,0,51.965-51.964h-1.945A56.389,56.389,0,0,1-372.278,391.193Z" transform="translate(-20.503 -20.503)"/><path class="c" d="M-404.844,258.586v-1.944a58.325,58.325,0,0,0-51.965,51.964h1.945A56.389,56.389,0,0,1-404.844,258.586Z"/><path class="d" d="M-454.864,341.173h-1.945a58.325,58.325,0,0,0,51.965,51.964v-1.944A56.367,56.367,0,0,1-436.2,377.329,56.073,56.073,0,0,1-454.864,341.173Z" transform="translate(0 -20.503)"/><path class="e" d="M-322.258,308.606h1.945a58.325,58.325,0,0,0-51.965-51.964v1.944A56.389,56.389,0,0,1-322.258,308.606Z" transform="translate(-20.503)"/></g></svg>