<svg xmlns="http://www.w3.org/2000/svg" width="29.95" height="10.127" viewBox="0 0 29.95 10.127"><defs><style>.a{opacity:0.5;}.b{opacity:0.2;}.c{opacity:0.042;}</style></defs><g transform="translate(-247.363 -748)"><g transform="translate(271.363 748)"><g transform="translate(5.95 10.127) rotate(180)"><path d="M2,5.066,5.788,1.277a.555.555,0,0,0,0-.783L5.456.162a.555.555,0,0,0-.783,0L.162,4.673a.559.559,0,0,0,0,.786L4.668,9.966a.555.555,0,0,0,.784,0l.332-.332a.555.555,0,0,0,0-.783Z" transform="translate(0 0)"/></g></g><g class="a" transform="translate(263.363 748)"><g transform="translate(5.95 10.127) rotate(180)"><path d="M2,5.066,5.788,1.277a.555.555,0,0,0,0-.783L5.456.162a.555.555,0,0,0-.783,0L.162,4.673a.559.559,0,0,0,0,.786L4.668,9.966a.555.555,0,0,0,.784,0l.332-.332a.555.555,0,0,0,0-.783Z" transform="translate(0 0)"/></g></g><g class="b" transform="translate(255.363 748)"><g transform="translate(5.95 10.127) rotate(180)"><path d="M2,5.066,5.788,1.277a.555.555,0,0,0,0-.783L5.456.162a.555.555,0,0,0-.783,0L.162,4.673a.559.559,0,0,0,0,.786L4.668,9.966a.555.555,0,0,0,.784,0l.332-.332a.555.555,0,0,0,0-.783Z" transform="translate(0 0)"/></g></g><g class="c" transform="translate(247.363 748)"><g transform="translate(5.95 10.127) rotate(180)"><path d="M2,5.066,5.788,1.277a.555.555,0,0,0,0-.783L5.456.162a.555.555,0,0,0-.783,0L.162,4.673a.559.559,0,0,0,0,.786L4.668,9.966a.555.555,0,0,0,.784,0l.332-.332a.555.555,0,0,0,0-.783Z" transform="translate(0 0)"/></g></g></g></svg>