<svg xmlns="http://www.w3.org/2000/svg" width="13" height="13.5" viewBox="0 0 13 13.5"><defs><style>.a{fill:#fff;}</style></defs><g transform="translate(-5.988)"><g transform="translate(5.988 0)"><path class="a" d="M7.778,13.5H17.2a1.791,1.791,0,0,0,1.79-1.79V2.79A1.791,1.791,0,0,0,17.2,1h-.71V.5a.5.5,0,0,0-1,0V1h-6V.5a.5.5,0,0,0-1,0V1h-.71a1.791,1.791,0,0,0-1.79,1.79v8.92a1.791,1.791,0,0,0,1.79,1.79ZM6.988,2.79A.792.792,0,0,1,7.778,2h.71v.5a.5.5,0,0,0,1,0V2h6v.5a.5.5,0,0,0,1,0V2h.71a.792.792,0,0,1,.79.79v8.92a.792.792,0,0,1-.79.79H7.778a.792.792,0,0,1-.79-.79Z" transform="translate(-5.988 0)"/><circle class="a" cx="0.625" cy="0.625" r="0.625" transform="translate(3 4.5)"/><circle class="a" cx="0.625" cy="0.625" r="0.625" transform="translate(5.75 4.5)"/><circle class="a" cx="0.625" cy="0.625" r="0.625" transform="translate(8.5 4.5)"/><circle class="a" cx="0.625" cy="0.625" r="0.625" transform="translate(3 7)"/><circle class="a" cx="0.625" cy="0.625" r="0.625" transform="translate(5.75 7)"/><circle class="a" cx="0.625" cy="0.625" r="0.625" transform="translate(8.5 7)"/><circle class="a" cx="0.625" cy="0.625" r="0.625" transform="translate(3 9.5)"/><circle class="a" cx="0.625" cy="0.625" r="0.625" transform="translate(5.75 9.5)"/><circle class="a" cx="0.625" cy="0.625" r="0.625" transform="translate(8.5 9.5)"/></g></g></svg>