<svg xmlns="http://www.w3.org/2000/svg" width="20.665" height="17.909" viewBox="0 0 20.665 17.909"><defs><style>.a{opacity:0.147;}.b{fill:#2f3335;}</style></defs><g class="a"><path class="b" d="M19.149,5.755H16.191l-.344-1.033A2.511,2.511,0,0,0,13.46,3H9.2A2.511,2.511,0,0,0,6.819,4.722L6.473,5.755H3.516A2.518,2.518,0,0,0,1,8.271V18.4a2.518,2.518,0,0,0,2.516,2.513H19.152a2.518,2.518,0,0,0,2.513-2.516V8.268a2.518,2.518,0,0,0-2.516-2.513Zm1.138,12.639a1.139,1.139,0,0,1-1.138,1.138H3.516a1.139,1.139,0,0,1-1.138-1.138V8.268A1.139,1.139,0,0,1,3.516,7.133H6.97a.689.689,0,0,0,.653-.471l.5-1.506A1.137,1.137,0,0,1,9.2,4.378H13.46a1.136,1.136,0,0,1,1.079.778l.5,1.506a.689.689,0,0,0,.653.471h3.454a1.139,1.139,0,0,1,1.138,1.138Z" transform="translate(-1 -3)"/><path class="b" d="M13.666,10a5.166,5.166,0,1,0,5.166,5.166A5.166,5.166,0,0,0,13.666,10Zm0,8.955a3.789,3.789,0,1,1,3.789-3.789A3.789,3.789,0,0,1,13.666,18.955Z" transform="translate(-3.334 -5.178)"/><circle class="b" cx="0.874" cy="0.874" r="0.874" transform="translate(16.314 5.46)"/></g></svg>