<svg xmlns="http://www.w3.org/2000/svg" xmlns:xlink="http://www.w3.org/1999/xlink" width="45" height="44" viewBox="0 0 45 44"><defs><style>.a,.d{fill:none;}.a{stroke:#2f2f2f;stroke-width:1.2px;}.b{fill:#383a48;}.c{stroke:none;}.e{filter:url(#a);}</style><filter id="a" x="0" y="0" width="45" height="44" filterUnits="userSpaceOnUse"><feOffset dy="1" input="SourceAlpha"/><feGaussianBlur stdDeviation="2.5" result="b"/><feFlood flood-opacity="0.161"/><feComposite operator="in" in2="b"/><feComposite in="SourceGraphic"/></filter></defs><g transform="translate(-279.5 -25.5)"><g transform="translate(287.172 32)"><g transform="translate(0 0)"><g class="e" transform="matrix(1, 0, 0, 1, -7.67, -6.5)"><g class="a" transform="translate(7.5 6.5)"><rect class="c" width="30" height="29" rx="9"/><rect class="d" x="0.6" y="0.6" width="28.8" height="27.8" rx="8.4"/></g></g></g></g><path class="b" d="M147.592,169.218l-6.249,6.249-2.589-2.589a1.041,1.041,0,1,0-1.472,1.472l3.325,3.325a1.041,1.041,0,0,0,1.473,0l6.985-6.985a1.041,1.041,0,0,0-1.473-1.473Z" transform="translate(159.024 -126.913)"/></g></svg>