<svg xmlns="http://www.w3.org/2000/svg" width="11.613" height="8.671" viewBox="0 0 11.613 8.671"><defs><style>.a{fill:#c4c4c4;}</style></defs><g transform="translate(-733.689 -395.998)"><g transform="translate(733.689 395.998)"><path class="a" d="M744.791,396H734.2a.51.51,0,0,0-.51.51v7.651a.51.51,0,0,0,.51.51h10.592a.51.51,0,0,0,.51-.51v-7.651A.51.51,0,0,0,744.791,396Zm-1.391,1.02-4.04,3.421-3.826-3.421Zm.881,6.631h-9.572v-6l4.3,3.847a.51.51,0,0,0,.67.009l4.6-3.9v6.04Z" transform="translate(-733.689 -395.998)"/></g></g></svg>