<svg xmlns="http://www.w3.org/2000/svg" width="13.389" height="7.981" viewBox="0 0 13.389 7.981"><defs><style>.a{fill:#272727;}</style></defs><g transform="translate(0 -98.725)"><path class="a" d="M6.694,98.725A8.352,8.352,0,0,0,.1,102.4a.53.53,0,0,0,0,.633,8.348,8.348,0,0,0,6.59,3.675,8.352,8.352,0,0,0,6.59-3.673.53.53,0,0,0,0-.633A8.348,8.348,0,0,0,6.694,98.725Zm.184,6.8A2.816,2.816,0,1,1,9.5,102.9,2.818,2.818,0,0,1,6.878,105.525Zm-.085-1.3a1.516,1.516,0,1,1,1.416-1.416A1.514,1.514,0,0,1,6.793,104.227Z" transform="translate(0)"/></g></svg>