<svg xmlns="http://www.w3.org/2000/svg" width="11.928" height="14.814" viewBox="0 0 11.928 14.814"><defs><style>.a{fill:#c4c4c4;}</style></defs><g transform="translate(-28.925)"><path class="a" d="M40.854,3.866a.506.506,0,0,0-.069-.255L39.96,1.96a.509.509,0,0,0-.455-.281H37.016a2.187,2.187,0,0,0-4.254,0H30.273a.509.509,0,0,0-.455.281l-.839,1.678a.508.508,0,0,0,.441.735l1.61,10.013a.509.509,0,0,0,.5.428h6.714a.509.509,0,0,0,.5-.428l1.61-10.012a.508.508,0,0,0,.5-.508ZM34.889,1.017a1.171,1.171,0,0,1,1.053.661H33.836A1.171,1.171,0,0,1,34.889,1.017ZM30.588,2.7h8.6l.331.661H30.257l.331-.661Zm7.225,11.1H31.966L30.451,4.374h8.877Z"/></g></svg>