<svg xmlns="http://www.w3.org/2000/svg" width="10.268" height="13.32" viewBox="0 0 10.268 13.32"><defs><style>.a{fill:#fff;}</style></defs><path class="a" d="M8.967,1.025H7.7V.52A.52.52,0,0,0,7.18,0H3.087a.52.52,0,0,0-.52.52v.5H1.3A1.3,1.3,0,0,0,0,2.326v9.693a1.3,1.3,0,0,0,1.3,1.3H8.967a1.3,1.3,0,0,0,1.3-1.3V2.326A1.3,1.3,0,0,0,8.967,1.025ZM6.66,1.041V2.05H3.607V1.041ZM9.227,12.019a.26.26,0,0,1-.26.26H1.3a.26.26,0,0,1-.26-.26V2.326a.26.26,0,0,1,.26-.26H2.567v.5a.52.52,0,0,0,.52.52H7.18a.52.52,0,0,0,.52-.52v-.5H8.967a.261.261,0,0,1,.26.26ZM7.548,6.075a.52.52,0,0,1,0,.736L4.814,9.545a.52.52,0,0,1-.736,0L2.719,8.186a.52.52,0,0,1,.736-.736l.991.991L6.812,6.075A.52.52,0,0,1,7.548,6.075Zm0,0"/></svg>